<svg width="598" height="119" viewBox="0 0 598 119" fill="none" xmlns="http://www.w3.org/2000/svg">
<g clip-path="url(#clip0_120_29)">
<path d="M50.6546 67.0054L44.5029 62.4671L45.366 54.8516L52.3807 51.7998L58.5324 56.3493L57.6693 63.9648L50.6546 67.0054ZM46.9653 62.1484L48.6576 64.6135H51.8561L54.5413 64.5092L56.1941 61.7507L57.3026 59.4012L55.9234 56.5468L54.5131 54.4849L48.7817 54.4426L47.6309 55.726L46.8384 56.9783L45.6029 59.5168L46.9653 62.1484Z" fill="#0B149D"/>
<path d="M57.1162 69.1011H45.9186L40.3198 59.404L45.9186 49.7069H57.1162L62.715 59.404L57.1162 69.1011ZM46.9058 67.389H56.1262L60.7378 59.404L56.129 51.4162H46.9086L42.297 59.4012L46.9058 67.389Z" fill="#0B149D"/>
<path d="M54.2337 54.6994L56.9499 59.4041L54.2337 64.1088H48.8013L46.0851 59.4041L48.8013 54.6994H54.2337ZM54.7273 53.8532H48.3077L48.0595 54.2819L45.3517 58.9782L45.1035 59.4069L45.3517 59.8356L48.0679 64.5403L48.3161 64.969H54.7357L54.9839 64.5403L57.7001 59.8356L57.9455 59.4069L57.7001 58.9782L54.9839 54.2735L54.7273 53.8532Z" fill="#0B149D"/>
<path d="M56.6115 73.7182L41.6625 70.971L36.5742 56.6567L46.4236 45.0924L61.3726 47.8396L66.4665 62.154L56.6115 73.7182ZM42.9543 69.4677L55.9543 71.8567L64.5231 61.7929L60.092 49.3402L47.0921 46.9512L38.5232 57.0149L42.9543 69.4677Z" fill="#0B149D"/>
<path d="M55.9064 78.2623L37.381 72.6212L32.9922 53.763L47.1288 40.5346L65.6542 46.1757L70.043 65.0339L55.9064 78.2623ZM38.8223 71.2843L55.4636 76.3387L68.1561 64.4585L64.2073 47.5352L47.566 42.4808L34.8735 54.3609L38.8223 71.2843Z" fill="#0B149D"/>
<path d="M55.7457 82.6933L33.4633 74.7196L29.2324 51.4303L47.284 36.1259L69.5664 44.1109L73.7972 67.4002L55.7457 82.6933ZM34.9694 73.4306L55.3931 80.7499L71.9441 66.7233L68.0658 45.3858L47.645 38.0524L31.0968 52.079L34.9694 73.4306Z" fill="#0B149D"/>
<path d="M55.1226 87.2146L29.2355 76.4317L25.6309 48.6153L47.9133 31.5876L73.8003 42.3706L77.405 70.1813L55.1226 87.2146ZM30.8038 75.2329L54.8687 85.2572L75.5801 69.4282L72.2293 43.575L48.1671 33.5536L27.4614 49.3825L30.8038 75.2329Z" fill="#0B149D"/>
<path d="M54.2423 91.6683L24.9395 77.8955L22.2148 45.6311L48.7958 27.148L78.0985 40.9123L80.8232 73.1767L54.2423 91.6683ZM26.5613 76.7672L54.0759 89.6995L79.035 72.3362L76.4767 42.0406L48.9622 29.1224L24.0031 46.4857L26.5613 76.7672Z" fill="#0B149D"/>
<path d="M53.8444 95.9669L21.0159 79.6979L18.689 43.135L49.1905 22.827L82.0189 39.096L84.3459 75.6589L53.8444 95.9669ZM22.6603 78.6035L53.7175 93.9953L82.5746 74.793L80.3745 40.2017L49.3174 24.8099L20.4603 44.0122L22.6603 78.6035Z" fill="#0B149D"/>
<path d="M53.478 100.457L16.9433 81.6271L14.9858 40.5739L15.4005 40.3059L49.5602 18.3507L86.0921 37.1808L88.0495 78.234L87.6349 78.4991L53.478 100.457ZM18.6074 80.5581L53.3849 98.4827L86.2952 77.3286L84.4308 38.2497L49.6533 20.3251L16.743 41.4793L18.6074 80.5581Z" fill="#0B149D"/>
<path d="M52.5021 105.091L12.4502 83.0911L11.4658 37.3981L50.5418 13.7054L90.5937 35.7058L91.5781 81.3988L52.5021 105.091ZM14.1425 82.0757L52.4711 103.117L89.8576 80.4454L88.9155 36.7268L50.5757 15.6883L13.1892 38.3627L14.1425 82.0757Z" fill="#0B149D"/>
<path d="M52.5896 109.153L8.96683 85.2093L7.89502 35.4547L50.4459 9.64945L94.0687 33.5988L95.1405 83.3534L52.5896 109.153ZM10.6563 84.1855L52.5473 107.179L93.4115 82.3972L92.382 34.617L50.4911 11.6238L9.62684 36.4053L10.6563 84.1855Z" fill="#0B149D"/>
<path d="M51.9268 113.956L4.4794 87.0314L4.07324 32.479L51.1145 4.83758L98.5619 31.7767L98.9681 86.3291L51.9268 113.956ZM6.18302 86.0329L51.9127 111.982L97.2362 85.3532L96.8583 32.778L51.1314 6.82889L5.79096 33.4549L6.18302 86.0329Z" fill="#0B149D"/>
<path d="M2.14362 88.3993L1.71772 31.142L51.0916 2.14667L100.888 30.4086L101.314 87.666L51.9434 116.661L2.14362 88.3993ZM51.0746 0.172279L0 30.1689L0.440007 89.4006L51.5287 118.39L51.9575 118.636L103.032 88.639L102.592 29.4074L51.5062 0.414847L51.0746 0.172279Z" fill="#0B149D"/>
<path d="M173.617 89.1568C169.638 89.1959 165.688 88.4711 161.982 87.0217C158.509 85.665 155.344 83.6249 152.674 81.0223C150.044 78.4473 147.963 75.3665 146.556 71.9655C143.654 64.6469 143.654 56.4968 146.556 49.1782C147.97 45.7683 150.069 42.6848 152.722 40.1186C155.402 37.5293 158.564 35.4919 162.03 34.1221C165.722 32.6719 169.659 31.9469 173.625 31.987C177.429 31.958 181.206 32.6134 184.778 33.9219C188.162 35.1581 191.209 37.1715 193.674 39.7999L191.099 42.4597C188.832 40.1915 186.097 38.4463 183.085 37.346C180.097 36.2878 176.948 35.7563 173.778 35.775C170.347 35.744 166.943 36.3731 163.75 37.6281C160.756 38.8065 158.03 40.5755 155.734 42.8298C153.438 45.084 151.62 47.7774 150.387 50.7493C147.863 57.0555 147.863 64.0911 150.387 70.3973C151.619 73.3703 153.437 76.0646 155.733 78.3194C158.029 80.5743 160.756 82.3435 163.75 83.5214C166.943 84.7763 170.347 85.4055 173.778 85.3745C176.948 85.394 180.097 84.8624 183.085 83.8034C186.111 82.6939 188.849 80.9205 191.099 78.6136L193.674 81.2677C191.205 83.9016 188.16 85.9288 184.778 87.1909C181.212 88.5256 177.432 89.1948 173.625 89.1653" fill="#0B149D"/>
<path d="M216.771 89.0779C214 89.1435 211.245 88.6355 208.679 87.5858C206.556 86.7224 204.735 85.2504 203.447 83.355C202.225 81.4898 201.593 79.3001 201.633 77.0708C201.605 75.0282 202.119 73.0146 203.122 71.2351C204.292 69.334 206.022 67.8429 208.075 66.9676C211.005 65.7486 214.165 65.1854 217.335 65.3175H232.792V68.4568H217.417C214.179 68.1322 210.933 68.9909 208.278 70.874C207.433 71.6327 206.762 72.5652 206.311 73.6075C205.859 74.6498 205.639 75.7773 205.664 76.9128C205.624 78.1528 205.88 79.3844 206.413 80.505C206.945 81.6256 207.738 82.6027 208.724 83.355C211.241 85.1083 214.277 85.9592 217.338 85.7694C220.503 85.8732 223.627 85.0327 226.313 83.355C228.825 81.6577 230.73 79.2033 231.751 76.3487L232.879 79.0875C231.806 82.0789 229.785 84.6374 227.123 86.373C224.019 88.2807 220.417 89.2204 216.777 89.0723M231.915 88.7507V79.1608L231.754 77.7111V61.9159C231.869 60.2874 231.645 58.6528 231.098 57.1147C230.551 55.5765 229.692 54.168 228.575 52.9776C225.995 50.7745 222.651 49.6752 219.267 49.9173C213.954 49.8889 208.809 51.7765 204.775 55.234L202.761 52.3345C204.974 50.3979 207.546 48.9162 210.332 47.9739C213.306 46.9241 216.438 46.3937 219.592 46.4057C223.952 46.1154 228.255 47.5314 231.59 50.3545C233.07 51.9136 234.206 53.765 234.928 55.7896C235.649 57.8142 235.939 59.9673 235.779 62.1106V88.762L231.915 88.7507Z" fill="#0B149D"/>
<path d="M252.364 88.7535V46.7272H256.231V58.2408L255.828 56.9546C256.871 53.7498 258.973 50.9948 261.788 49.1416C264.932 47.2209 268.573 46.2693 272.255 46.4057V50.3545C272.092 50.3551 271.93 50.3419 271.77 50.315C271.61 50.2871 271.449 50.2729 271.287 50.2727C269.253 50.1616 267.218 50.4968 265.327 51.255C263.435 52.0131 261.733 53.1758 260.338 54.6615C257.534 58.0865 256.124 62.4422 256.389 66.8604V88.762L252.364 88.7535Z" fill="#0B149D"/>
<path d="M283.365 88.7563V29H287.39V60.3082L286.586 67.6416L287.243 74.9751V88.745L283.365 88.7563ZM304.463 89.0779C300.951 89.1273 297.49 88.2373 294.438 86.4999C291.426 84.7477 288.97 82.1802 287.353 79.0931C285.632 75.5411 284.737 71.6452 284.737 67.698C284.737 63.7509 285.632 59.855 287.353 56.303C288.987 53.2474 291.441 50.7079 294.438 48.9695C297.491 47.234 300.951 46.345 304.463 46.3944C308.195 46.3335 311.877 47.2639 315.133 49.0908C318.243 50.8591 320.807 53.45 322.542 56.5794C324.314 60.0225 325.238 63.8386 325.238 67.7107C325.238 71.5828 324.314 75.399 322.542 78.8421C320.816 81.9882 318.251 84.5941 315.133 86.3701C311.878 88.1989 308.196 89.1304 304.463 89.0694M304.223 85.445C307.266 85.4903 310.267 84.7262 312.919 83.2308C315.489 81.762 317.596 79.6001 318.997 76.9918C320.452 74.1149 321.21 70.9361 321.21 67.7121C321.21 64.4882 320.452 61.3094 318.997 58.4325C317.586 55.8397 315.482 53.6911 312.919 52.2273C310.267 50.7319 307.266 49.9678 304.223 50.0131C301.191 49.9641 298.202 50.7287 295.566 52.2273C293.021 53.7007 290.931 55.8479 289.528 58.4325C288.071 61.309 287.312 64.4879 287.312 67.7121C287.312 70.9364 288.071 74.1153 289.528 76.9918C290.922 79.5917 293.013 81.7521 295.566 83.2308C298.202 84.7295 301.191 85.4941 304.223 85.445Z" fill="#0B149D"/>
<path d="M354.141 89.075C350.377 89.1424 346.665 88.1965 343.392 86.3362C340.266 84.5262 337.681 81.9135 335.904 78.7687C334.08 75.3708 333.125 71.5742 333.125 67.7177C333.125 63.8612 334.08 60.0647 335.904 56.6668C337.69 53.5393 340.274 50.9416 343.392 49.1387C346.665 47.2804 350.378 46.3354 354.141 46.4028C357.917 46.339 361.641 47.2834 364.93 49.1387C368.059 50.9271 370.647 53.5282 372.418 56.6668C374.217 60.0726 375.158 63.8661 375.158 67.7177C375.158 71.5694 374.217 75.3629 372.418 78.7687C370.656 81.9246 368.067 84.5408 364.93 86.3362C361.642 88.1934 357.917 89.1389 354.141 89.075ZM354.141 85.4506C357.185 85.4959 360.186 84.7318 362.837 83.2364C365.402 81.7729 367.497 79.6087 368.876 76.9974C370.306 74.113 371.05 70.9371 371.05 67.7177C371.05 64.4983 370.306 61.3225 368.876 58.4381C367.488 55.8422 365.394 53.6912 362.837 52.2329C360.186 50.7377 357.185 49.9736 354.141 50.0187C351.111 49.9696 348.122 50.7342 345.488 52.2329C342.941 53.706 340.851 55.8532 339.446 58.4381C337.991 61.315 337.233 64.4938 337.233 67.7177C337.233 70.9417 337.991 74.1205 339.446 76.9974C340.842 79.5975 342.934 81.7579 345.488 83.2364C348.122 84.7351 351.111 85.4997 354.141 85.4506Z" fill="#0B149D"/>
<path d="M408.166 46.3999C411.274 46.327 414.353 47.0042 417.144 48.3743C419.699 49.6962 421.781 51.7786 423.103 54.3342C424.619 57.398 425.353 60.7896 425.239 64.2061V88.7647H421.214V64.5305C421.49 60.6025 420.202 56.7245 417.632 53.7418C416.308 52.4642 414.734 51.4752 413.008 50.8372C411.283 50.1993 409.444 49.9263 407.607 50.0356C404.637 49.9638 401.697 50.6573 399.072 52.0495C396.71 53.3357 394.789 55.3007 393.555 57.6906C392.229 60.392 391.579 63.3754 391.663 66.3836V88.7675H387.638V46.7412H391.505V58.4183L390.941 57.1265C392.157 53.8907 394.39 51.1365 397.304 49.2769C400.571 47.2857 404.35 46.2926 408.174 46.4197" fill="#0B149D"/>
<path d="M439.003 88.7536V32.3904H467.668C475.13 32.3904 480.686 33.7593 484.338 36.4971C486.052 37.6838 487.448 39.2739 488.402 41.1273C489.357 42.9806 489.841 45.0404 489.812 47.125C489.863 49.8459 489.075 52.5166 487.556 54.7743C485.941 57.0669 483.708 58.8539 481.117 59.9275C478.007 61.2249 474.661 61.8562 471.293 61.7806L472.821 57.9164C476.355 57.8477 479.868 58.4636 483.167 59.73C485.938 60.7788 488.343 62.6115 490.089 65.0045C491.765 67.4387 492.625 70.3424 492.546 73.2969C492.615 75.5388 492.107 77.7608 491.069 79.7495C490.032 81.7382 488.501 83.4266 486.622 84.6525C481.378 87.7247 475.333 89.1551 469.267 88.7592L439.003 88.7536ZM454.705 77.2372H468.072C470.257 77.3843 472.438 76.8944 474.35 75.8269C475.002 75.3144 475.53 74.6604 475.892 73.9143C476.255 73.1682 476.443 72.3495 476.443 71.5199C476.443 70.6904 476.255 69.8717 475.892 69.1256C475.53 68.3795 475.002 67.7255 474.35 67.213C472.437 66.1464 470.257 65.6566 468.072 65.8027H453.58V54.7743H465.657C467.76 54.9172 469.86 54.4416 471.696 53.4063C472.351 52.9667 472.881 52.3648 473.234 51.6594C473.587 50.954 473.751 50.1691 473.71 49.3814C473.767 48.5741 473.611 47.7659 473.257 47.0378C472.904 46.3097 472.366 45.6871 471.696 45.2324C469.85 44.2261 467.755 43.7663 465.657 43.9067H454.705V77.2372Z" fill="#0B149D"/>
<path d="M522.02 89.4783C517.607 89.5615 513.241 88.5662 509.3 86.5788C505.71 84.7555 502.686 81.9855 500.556 78.5684C498.474 75.0298 497.375 70.9986 497.375 66.8927C497.375 62.7868 498.474 58.7557 500.556 55.217C502.685 51.7985 505.709 49.0274 509.3 47.2038C513.276 45.2956 517.631 44.3049 522.042 44.3049C526.452 44.3049 530.807 45.2956 534.783 47.2038C538.388 49.0203 541.424 51.7923 543.561 55.217C545.644 58.7553 546.743 62.7866 546.743 66.8927C546.743 70.9988 545.644 75.0302 543.561 78.5684C541.424 81.9917 538.387 84.7625 534.783 86.5788C530.827 88.5632 526.449 89.5582 522.023 89.4783M522.023 77.3189C523.648 77.3434 525.249 76.9262 526.655 76.1117C528.071 75.2526 529.215 74.0096 529.955 72.5268C530.828 70.7654 531.256 68.8169 531.201 66.8518C531.271 64.8961 530.842 62.9548 529.955 61.2107C529.185 59.7771 528.041 58.5789 526.645 57.7437C525.248 56.9084 523.652 56.4673 522.025 56.4673C520.398 56.4673 518.801 56.9084 517.404 57.7437C516.008 58.5789 514.864 59.7771 514.095 61.2107C513.205 62.9542 512.775 64.8958 512.845 66.8518C512.791 68.8172 513.22 70.7659 514.095 72.5268C514.832 74.0099 515.975 75.2531 517.392 76.1117C518.798 76.926 520.399 77.3433 522.023 77.3189Z" fill="#0B149D"/>
<path d="M547.301 88.7534L567.428 62.4236L567.028 71.1334L547.865 45.0433H565.096L575.814 60.5056L569.453 60.8271L580.967 45.032H597.07L577.749 70.558L577.828 62.1838L597.636 88.7563H580.084L568.971 72.3293L575.41 73.2178L563.979 88.7563L547.301 88.7534Z" fill="#0B149D"/>
</g>
<defs>
<clipPath id="clip0_120_29">
<rect width="597.636" height="118.807" fill="white"/>
</clipPath>
</defs>
</svg>
